<svg xmlns="http://www.w3.org/2000/svg" width="16" height="16" viewBox="0 0 16 16" fill="none">
  <path fill-rule="evenodd" clip-rule="evenodd" d="M0.246647 0.246647C0.575509 -0.0822157 1.1087 -0.0822157 1.43756 0.246647L15.7534 14.5624C16.0822 14.8913 16.0822 15.4245 15.7534 15.7534C15.4245 16.0822 14.8913 16.0822 14.5624 15.7534L0.246647 1.43756C-0.0822157 1.1087 -0.0822157 0.575509 0.246647 0.246647Z" fill="black"/>
  <path fill-rule="evenodd" clip-rule="evenodd" d="M15.7534 0.246647C15.4245 -0.0822157 14.8913 -0.0822157 14.5624 0.246647L0.246648 14.5624C-0.0822163 14.8913 -0.0822163 15.4245 0.246648 15.7534C0.57551 16.0822 1.1087 16.0822 1.43756 15.7534L15.7534 1.43756C16.0822 1.1087 16.0822 0.575509 15.7534 0.246647Z" fill="black"/>
</svg>