<svg id="_레이어_1" data-name="레이어 1" xmlns="http://www.w3.org/2000/svg" viewBox="0 0 632.86 167.2">
  <defs>
    <style>
      .cls-1 {
        fill: #fffff8;
        stroke-width: 0px;
      }
    </style>
  </defs>
  <path class="cls-1" d="M116.78,0l80.08,167.2h-31.37L92.76,11.15h11.34L31.36,167.2H0L80.08,0h36.7Z"/>
  <path class="cls-1" d="M267.16,88.51v-16.94l77.86,95.64h-36.26l-60.06-75.8h12.9l-60.28,75.8h-35.37l78.08-95.19v16.05L171.5,0h36.48l54.94,68.89h-13.35L304.08,0h35.37l-72.3,88.51Z"/>
  <path class="cls-1" d="M314.54,0h33.14l68.07,85.61h-15.79L468.03,0h33.14l-83.86,105.45-18.69.22L314.54,0ZM393.29,167.2v-79.81h29.36v79.81h-29.36Z"/>
  <path class="cls-1" d="M478.48,167.2v-22.52L601.72,14.71l18.91,9.81h-141.25V0h152.82v22.29l-123.46,130.42-16.24-10.03h140.36v24.52h-154.38Z"/>
</svg>